<svg xmlns="http://www.w3.org/2000/svg" viewBox="0 0 60 60">
	<path id="wavy" d="M57.35,21.73c-3.82,0-5.48-2.51-5.48-5.88S50.24,10,46.41,10c-9.88.06-.91,11.59-10.94,11.69-3.82,0-5.48-2.51-5.48-5.88S28.36,10,24.53,10c-9.88.06-.91,11.59-10.94,11.69-3.82,0-5.48-2.51-5.48-5.88S6.48,10,2.65,10V4.18c10,.1,1.06,11.63,10.94,11.69,3.83,0,5.46-2.46,5.46-5.81s1.66-5.88,5.48-5.88c10,.1,1.06,11.63,10.94,11.69,3.83,0,5.46-2.46,5.46-5.81s1.66-5.88,5.48-5.88c10,.1,1.06,11.63,10.94,11.69"/>
	<use href="#wavy" transform="translate(0 11.5)"/>
	<use href="#wavy" transform="translate(0 23)"/>
	<use href="#wavy" transform="translate(0 34.5)"/>
</svg>