<svg viewBox="0 0 256 256" width="64px" height="64px" xmlns="http://www.w3.org/2000/svg">
	<path fill="#f44336" d="M128 24a80 80 0 00-80 80c0 72 80 128 80 128s80-56 80-128a80 80 0 00-80-80zm0 112a32 32 0 1132-32 32 32 0 01-32 32z"/>
	<path d="M128 64a40 40 0 1040 40 40.05 40.05 0 00-40-40zm0 64a24 24 0 1124-24 24.03 24.03 0 01-24 24z"/>
	<path d="M128 16a88.1 88.1 0 00-88 88c0 31.4 14.51 64.68 41.96 96.25a254.57 254.57 0 0041.45 38.3 8 8 0 009.18 0 254.56 254.56 0 0041.45-38.3c27.45-31.57 41.96-64.85 41.96-96.25a88.1 88.1 0 00-88-88zm0 205.98c-16.53-12.97-72-60.75-72-117.98a72 72 0 01144 0c0 57.23-55.47 105.01-72 117.98z"/>
</svg>