<svg xmlns="http://www.w3.org/2000/svg" viewBox="3.1 1.61 302.76 71.23">
<g id="logo">
	<g data-name="Monumentos">
		<path d="M3.1,35.21V1.61h9.32L24.56,22.06l-3.89.05L32.1,1.61h9.31v33.6H32.05l.19-21.41,1.68.63L25.38,29.5H19.14l-9-15.07,1.68-.63L12,35.21Z"/>
		<path d="M57.92,35.93a14.7,14.7,0,0,1-7.36-1.8,13.23,13.23,0,0,1-5-4.8,12.87,12.87,0,0,1-.77-11.57,13.21,13.21,0,0,1,2.9-4.22,14.09,14.09,0,0,1,4.48-2.93,15.81,15.81,0,0,1,13.07.72,13.23,13.23,0,0,1,5,4.8A12.87,12.87,0,0,1,71,27.7a13.21,13.21,0,0,1-2.9,4.22,14.15,14.15,0,0,1-4.47,2.93A14.65,14.65,0,0,1,57.92,35.93Zm0-8.16a4.88,4.88,0,0,0,2.44-.61,4.5,4.5,0,0,0,1.72-1.74,5.33,5.33,0,0,0,.64-2.69A5.54,5.54,0,0,0,62.1,20a4.43,4.43,0,0,0-1.72-1.74,5.27,5.27,0,0,0-4.92,0A4.43,4.43,0,0,0,53.74,20a5.54,5.54,0,0,0-.62,2.69,5.33,5.33,0,0,0,.64,2.69,4.5,4.5,0,0,0,1.72,1.74A4.88,4.88,0,0,0,57.92,27.77Z"/>
		<path d="M73.76,35.21v-25h9.6v2.3a7.81,7.81,0,0,1,3.08-2.29,10,10,0,0,1,3.83-.73,11.17,11.17,0,0,1,5.89,1.39,8.68,8.68,0,0,1,3.39,3.63,10.66,10.66,0,0,1,1.09,4.77V35.21H91V22.35a4.69,4.69,0,0,0-.92-3.09,3.56,3.56,0,0,0-2.87-1.09,4,4,0,0,0-2.11.53,3.36,3.36,0,0,0-1.32,1.47,4.92,4.92,0,0,0-.46,2.18V35.21Z"/>
		<path d="M113.65,35.93a11.08,11.08,0,0,1-5.7-1.32,8.05,8.05,0,0,1-3.34-3.78,14.41,14.41,0,0,1-1.09-5.89V10.25h9.6V23.64a4,4,0,0,0,.82,2.69,3.08,3.08,0,0,0,2.49,1,3.51,3.51,0,0,0,1.85-.47,3,3,0,0,0,1.16-1.28,4.25,4.25,0,0,0,.4-1.9V10.25h9.6v25h-8.16V32.76a12.65,12.65,0,0,1-2.76,2.14A9.54,9.54,0,0,1,113.65,35.93Z"/>
		<path d="M133,35.21v-25h9.6v2.88a7.89,7.89,0,0,1,2-2A9.69,9.69,0,0,1,147.16,10a9.24,9.24,0,0,1,2.73-.42,8.77,8.77,0,0,1,4.5,1.16A5.72,5.72,0,0,1,157,14a7.91,7.91,0,0,1,3.69-3.28,12.82,12.82,0,0,1,5.43-1.14A10.38,10.38,0,0,1,172,10.92a7.53,7.53,0,0,1,2.94,3.63,13.41,13.41,0,0,1,.85,4.77V35.21h-9.6V22.06a4.2,4.2,0,0,0-.91-2.83,3.24,3.24,0,0,0-2.59-1.06,3.82,3.82,0,0,0-1.84.42,3.1,3.1,0,0,0-1.2,1.09,2.73,2.73,0,0,0-.42,1.47V35.21h-9.6V22.06a4.2,4.2,0,0,0-.91-2.83,3.24,3.24,0,0,0-2.59-1.06,3.82,3.82,0,0,0-1.84.42,3.1,3.1,0,0,0-1.2,1.09,2.73,2.73,0,0,0-.42,1.47V35.21Z"/>
		<path d="M191.21,35.93a15.46,15.46,0,0,1-7.34-1.66A11.91,11.91,0,0,1,179,29.64a13.52,13.52,0,0,1-1.74-7,13.48,13.48,0,0,1,1-5.31,12.18,12.18,0,0,1,2.88-4.17,13,13,0,0,1,4.39-2.71,15.64,15.64,0,0,1,5.58-1,14.57,14.57,0,0,1,6.06,1.2,11.72,11.72,0,0,1,4.38,3.35,12,12,0,0,1,2.35,5,15.24,15.24,0,0,1-.07,6.3h-18a2.8,2.8,0,0,0,.83,1.73,5,5,0,0,0,2,1.16,8.61,8.61,0,0,0,2.79.42,16.36,16.36,0,0,0,4.24-.53,15.45,15.45,0,0,0,3.92-1.68l2.78,6.34a11.58,11.58,0,0,1-3,1.53,25.62,25.62,0,0,1-4.06,1.12A21.42,21.42,0,0,1,191.21,35.93Zm-4.75-16.75h8.35a2.48,2.48,0,0,0-1.1-2.11,4.7,4.7,0,0,0-2.88-.82,5.28,5.28,0,0,0-3,.82A2.79,2.79,0,0,0,186.46,19.18Z"/>
		<path d="M205.93,35.21v-25h9.6v2.3a7.81,7.81,0,0,1,3.08-2.29,10,10,0,0,1,3.83-.73,11.19,11.19,0,0,1,5.89,1.39,8.59,8.59,0,0,1,3.38,3.63,10.67,10.67,0,0,1,1.1,4.77V35.21h-9.6V22.35a4.64,4.64,0,0,0-.93-3.09,3.53,3.53,0,0,0-2.87-1.09,4,4,0,0,0-2.11.53A3.49,3.49,0,0,0,216,20.17a5.06,5.06,0,0,0-.45,2.18V35.21Z"/>
		<path d="M233.09,17.74V10.25h5.19v7.49ZM247,35.93a9.44,9.44,0,0,1-7-2.48q-2.5-2.49-2.5-7.31V3.19h9.6v7.06h5.18v7.49h-5.18v6.91a2.67,2.67,0,0,0,.82,2.23,3,3,0,0,0,1.92.65,5.8,5.8,0,0,0,1.41-.18,5.59,5.59,0,0,0,1.37-.54l1.06,7.44a13.7,13.7,0,0,1-2.94,1.18A14,14,0,0,1,247,35.93Z"/>
		<path d="M267.7,35.93a14.66,14.66,0,0,1-7.35-1.8,13.25,13.25,0,0,1-5-4.8,12.67,12.67,0,0,1-1.79-6.6,12.49,12.49,0,0,1,1-5,13.21,13.21,0,0,1,2.9-4.22A14.09,14.09,0,0,1,262,10.61a15.81,15.81,0,0,1,13.07.72,13.33,13.33,0,0,1,5,4.8,12.66,12.66,0,0,1,1.78,6.6,12.49,12.49,0,0,1-1,5,13.05,13.05,0,0,1-2.9,4.22,14.11,14.11,0,0,1-4.46,2.93A14.7,14.7,0,0,1,267.7,35.93Zm0-8.16a4.88,4.88,0,0,0,2.44-.61,4.52,4.52,0,0,0,1.73-1.74,5.43,5.43,0,0,0,.63-2.69,5.54,5.54,0,0,0-.62-2.69,4.43,4.43,0,0,0-1.72-1.74,5.27,5.27,0,0,0-4.92,0A4.34,4.34,0,0,0,263.53,20a5.43,5.43,0,0,0-.63,2.69,5.33,5.33,0,0,0,.64,2.69,4.45,4.45,0,0,0,1.73,1.74A4.85,4.85,0,0,0,267.7,27.77Z"/>
		<path d="M293.53,35.88a24.38,24.38,0,0,1-6.71-.85,17.18,17.18,0,0,1-5.25-2.46l2.79-6.43a23.6,23.6,0,0,0,4.62,2,15,15,0,0,0,4.45.74,6.35,6.35,0,0,0,2.34-.32,1.06,1.06,0,0,0,.78-1c0-.37-.25-.63-.74-.78a27.26,27.26,0,0,0-3.05-.57q-5.26-.77-7.72-2.83a7,7,0,0,1-2.46-5.66A7.25,7.25,0,0,1,284,13.27a9.22,9.22,0,0,1,3.91-2.94,14.91,14.91,0,0,1,5.76-1,21.57,21.57,0,0,1,6,.83,16.42,16.42,0,0,1,4.88,2.24l-2.69,6.43a13.3,13.3,0,0,0-2.43-1.3,15.56,15.56,0,0,0-2.76-.88A12.33,12.33,0,0,0,294,16.3a6.41,6.41,0,0,0-2.18.3c-.53.2-.8.48-.8.85a.85.85,0,0,0,.64.79,20.1,20.1,0,0,0,3,.75q5.61,1.1,7.94,3A6.34,6.34,0,0,1,305,27.19a7.47,7.47,0,0,1-1.45,4.58,9.46,9.46,0,0,1-4,3A15.26,15.26,0,0,1,293.53,35.88Z"/>
	</g>
	<g data-name=".RIO">
		<path d="M164.38,72.84a5.17,5.17,0,0,1-3.44-1.25,4.24,4.24,0,0,1-1.47-3.41A4.41,4.41,0,0,1,161.94,64a5.28,5.28,0,0,1,2.44-.57,5.18,5.18,0,0,1,3.46,1.25,4.34,4.34,0,0,1,1.46,3.46,4.43,4.43,0,0,1-2.48,4.1A5.4,5.4,0,0,1,164.38,72.84Z"/>
		<path d="M171.79,72.21V42.81h12.48a15.71,15.71,0,0,1,6,1.07,8.82,8.82,0,0,1,4,3.12,8.47,8.47,0,0,1,1.42,5,8.89,8.89,0,0,1-.75,3.76,8.52,8.52,0,0,1-2,2.73,9.94,9.94,0,0,1-2.77,1.74l7.26,12h-10l-5.5-10.12h-1.64V72.21Zm8.49-16.8h3.11a5.12,5.12,0,0,0,2.74-.63,2.43,2.43,0,0,0,1-2.23,2.42,2.42,0,0,0-1-2.23,5.14,5.14,0,0,0-2.7-.62h-3.15Z"/>
		<path d="M199.18,72.21V42.81h8.48v29.4Z"/>
		<path d="M226,72.84a16.84,16.84,0,0,1-6.35-1.17,15.07,15.07,0,0,1-5-3.24,14.54,14.54,0,0,1-3.3-4.87,16.28,16.28,0,0,1,0-12.12,14.54,14.54,0,0,1,3.3-4.87,15,15,0,0,1,5-3.23A17,17,0,0,1,226,42.18a16.55,16.55,0,0,1,6.33,1.18,15.25,15.25,0,0,1,5,3.27,14.87,14.87,0,0,1,3.3,4.89,15.1,15.1,0,0,1,1.18,6,15.32,15.32,0,0,1-1.18,6.05,14.69,14.69,0,0,1-3.3,4.87,15.17,15.17,0,0,1-5,3.24A16.74,16.74,0,0,1,226,72.84Zm0-7.94a7.46,7.46,0,0,0,2.8-.51A6.29,6.29,0,0,0,231,62.91a6.57,6.57,0,0,0,1.43-2.33,8.75,8.75,0,0,0,.51-3.07,8.26,8.26,0,0,0-.89-3.93A6.28,6.28,0,0,0,229.62,51a7.13,7.13,0,0,0-3.6-.9,7.48,7.48,0,0,0-2.81.51A6.38,6.38,0,0,0,221,52.11a6.72,6.72,0,0,0-1.43,2.33,8.75,8.75,0,0,0-.5,3.07,8.26,8.26,0,0,0,.88,3.93A6.3,6.3,0,0,0,222.42,64,7.07,7.07,0,0,0,226,64.9Z"/>
	</g>
	<g data-name=".BR">
		<path d="M246.62,72.84a5.18,5.18,0,0,1-3.45-1.25,4.24,4.24,0,0,1-1.47-3.41,4.56,4.56,0,0,1,.68-2.52A4.45,4.45,0,0,1,244.17,64a5.35,5.35,0,0,1,2.45-.57,5.14,5.14,0,0,1,3.45,1.25,4.34,4.34,0,0,1,1.46,3.46,4.54,4.54,0,0,1-.68,2.5,4.48,4.48,0,0,1-1.8,1.6A5.36,5.36,0,0,1,246.62,72.84Z"/>
		<path d="M254,72.21V42.81h12.26a13,13,0,0,1,7.42,1.88,6.34,6.34,0,0,1,2.75,5.6,5.69,5.69,0,0,1-.48,2.36,6.29,6.29,0,0,1-1.35,1.89,8.83,8.83,0,0,1-2,1.42,7.7,7.7,0,0,1,5.08,7.39,8.07,8.07,0,0,1-1.38,4.73,8.68,8.68,0,0,1-3.9,3.06,15.49,15.49,0,0,1-6,1.07Zm8.48-17.68h2.69a3.6,3.6,0,0,0,1.65-.34,2.35,2.35,0,0,0,1-1,3,3,0,0,0,.37-1.55,2.56,2.56,0,0,0-.82-2,3.45,3.45,0,0,0-2.37-.73h-2.57Zm0,11.59h2.78a4,4,0,0,0,2.66-.77,2.75,2.75,0,0,0,.91-2.21A3,3,0,0,0,268,61a3.22,3.22,0,0,0-2.33-.79h-3.2Z"/>
		<path d="M280.24,72.21V42.81h12.47a15.67,15.67,0,0,1,6,1.07,8.9,8.9,0,0,1,4,3.12,8.54,8.54,0,0,1,1.42,5,8.89,8.89,0,0,1-.76,3.76,8.38,8.38,0,0,1-2,2.73,9.94,9.94,0,0,1-2.77,1.74l7.27,12h-10l-5.5-10.12h-1.64V72.21Zm8.48-16.8h3.11a5.1,5.1,0,0,0,2.74-.63,2.42,2.42,0,0,0,1-2.23,2.4,2.4,0,0,0-1-2.23,5.09,5.09,0,0,0-2.7-.62h-3.15Z"/>
	</g>
	<path id="waves" d="M156.26,43.78v5.86c-9.88.06-.91,11.59-10.94,11.69-3.82,0-5.48-2.51-5.48-5.88s-1.63-5.81-5.46-5.81c-9.88.06-.91,11.59-10.94,11.69-3.82,0-5.48-2.51-5.48-5.88s-1.63-5.81-5.46-5.81c-9.88.06-.91,11.59-10.94,11.69-3.82,0-5.48-2.51-5.48-5.88s-1.63-5.81-5.46-5.81c-9.88.06-.91,11.59-10.94,11.69-3.82,0-5.48-2.51-5.48-5.88s-1.63-5.81-5.46-5.81c-9.88.06-.91,11.59-10.94,11.69-3.82,0-5.48-2.51-5.48-5.88s-1.63-5.81-5.46-5.81C37,49.7,46,61.23,35.92,61.33c-3.82,0-5.48-2.51-5.48-5.88S28.81,49.64,25,49.64C15.1,49.7,24.07,61.23,14,61.33c-3.82,0-5.48-2.51-5.48-5.88S6.93,49.64,3.1,49.64V43.78c10,.1,1.06,11.63,10.94,11.69,3.83,0,5.46-2.46,5.46-5.81s1.66-5.88,5.48-5.88c10,.1,1.06,11.63,10.94,11.69,3.83,0,5.46-2.46,5.46-5.81s1.66-5.88,5.48-5.88c10,.1,1.06,11.63,10.94,11.69,3.83,0,5.46-2.46,5.46-5.81s1.66-5.88,5.48-5.88c10,.1,1.06,11.63,10.94,11.69,3.83,0,5.46-2.46,5.46-5.81s1.66-5.88,5.48-5.88c10,.1,1.06,11.63,10.94,11.69,3.83,0,5.46-2.46,5.46-5.81s1.66-5.88,5.48-5.88c10,.1,1.06,11.63,10.94,11.69,3.83,0,5.46-2.46,5.46-5.81s1.66-5.88,5.48-5.88c10,.1,1.06,11.63,10.94,11.69,3.83,0,5.46-2.46,5.46-5.81S152.44,43.78,156.26,43.78Z"/>
	<use href="#waves" transform="translate(0 11.59)"/>
</g>
</svg>